<svg xmlns="http://www.w3.org/2000/svg" viewBox="0 0 1200 1600">
  <!-- Background -->
  <rect width="1200" height="1600" fill="#F4EFE3"/>
  
  <!-- Title -->
  <text x="600" y="40" text-anchor="middle" font-family="serif" font-size="24" fill="#141414">印章样式选择 (20种)</text>
  
  <!-- Row 1 -->
  <!-- 1. 小方框大字 -->
  <g transform="translate(50, 80)">
    <rect x="10" y="10" width="100" height="100" rx="4" fill="none" stroke="#9C2A2A" stroke-width="6" transform="rotate(-3 60 60)"/>
    <text x="60" y="55" text-anchor="middle" font-family="serif" font-size="32" font-weight="700" fill="#9C2A2A" transform="rotate(-3 60 60)">西城</text>
    <text x="60" y="90" text-anchor="middle" font-family="serif" font-size="32" font-weight="700" fill="#9C2A2A" transform="rotate(-3 60 60)">閒人</text>
    <text x="60" y="130" text-anchor="middle" font-family="sans-serif" font-size="12" fill="#666">1. 小方框大字</text>
  </g>
  
  <!-- 2. 大圆角 -->
  <g transform="translate(250, 80)">
    <rect x="10" y="10" width="100" height="100" rx="30" fill="none" stroke="#9C2A2A" stroke-width="6" transform="rotate(-3 60 60)"/>
    <text x="60" y="55" text-anchor="middle" font-family="serif" font-size="32" font-weight="700" fill="#9C2A2A" transform="rotate(-3 60 60)">西城</text>
    <text x="60" y="90" text-anchor="middle" font-family="serif" font-size="32" font-weight="700" fill="#9C2A2A" transform="rotate(-3 60 60)">閒人</text>
    <text x="60" y="130" text-anchor="middle" font-family="sans-serif" font-size="12" fill="#666">2. 大圆角</text>
  </g>
  
  <!-- 3. 圆形 -->
  <g transform="translate(450, 80)">
    <circle cx="60" cy="60" r="50" fill="none" stroke="#9C2A2A" stroke-width="6" transform="rotate(-3 60 60)"/>
    <text x="60" y="55" text-anchor="middle" font-family="serif" font-size="30" font-weight="700" fill="#9C2A2A" transform="rotate(-3 60 60)">西城</text>
    <text x="60" y="85" text-anchor="middle" font-family="serif" font-size="30" font-weight="700" fill="#9C2A2A" transform="rotate(-3 60 60)">閒人</text>
    <text x="60" y="130" text-anchor="middle" font-family="sans-serif" font-size="12" fill="#666">3. 圆形</text>
  </g>
  
  <!-- 4. 椭圆 -->
  <g transform="translate(650, 80)">
    <ellipse cx="60" cy="60" rx="55" ry="45" fill="none" stroke="#9C2A2A" stroke-width="6" transform="rotate(-3 60 60)"/>
    <text x="60" y="55" text-anchor="middle" font-family="serif" font-size="28" font-weight="700" fill="#9C2A2A" transform="rotate(-3 60 60)">西城</text>
    <text x="60" y="85" text-anchor="middle" font-family="serif" font-size="28" font-weight="700" fill="#9C2A2A" transform="rotate(-3 60 60)">閒人</text>
    <text x="60" y="130" text-anchor="middle" font-family="sans-serif" font-size="12" fill="#666">4. 椭圆</text>
  </g>
  
  <!-- 5. 细边框 -->
  <g transform="translate(850, 80)">
    <rect x="15" y="15" width="90" height="90" rx="8" fill="none" stroke="#9C2A2A" stroke-width="3" transform="rotate(-3 60 60)"/>
    <text x="60" y="55" text-anchor="middle" font-family="serif" font-size="34" font-weight="700" fill="#9C2A2A" transform="rotate(-3 60 60)">西城</text>
    <text x="60" y="90" text-anchor="middle" font-family="serif" font-size="34" font-weight="700" fill="#9C2A2A" transform="rotate(-3 60 60)">閒人</text>
    <text x="60" y="130" text-anchor="middle" font-family="sans-serif" font-size="12" fill="#666">5. 细边框</text>
  </g>
  
  <!-- Row 2 -->
  <!-- 6. 无边框 -->
  <g transform="translate(50, 280)">
    <text x="60" y="50" text-anchor="middle" font-family="serif" font-size="36" font-weight="700" fill="#9C2A2A" transform="rotate(-3 60 60)">西城</text>
    <text x="60" y="90" text-anchor="middle" font-family="serif" font-size="36" font-weight="700" fill="#9C2A2A" transform="rotate(-3 60 60)">閒人</text>
    <text x="60" y="130" text-anchor="middle" font-family="sans-serif" font-size="12" fill="#666">6. 无边框</text>
  </g>
  
  <!-- 7. 双线框 -->
  <g transform="translate(250, 280)">
    <rect x="12" y="12" width="96" height="96" rx="6" fill="none" stroke="#9C2A2A" stroke-width="2" transform="rotate(-3 60 60)"/>
    <rect x="18" y="18" width="84" height="84" rx="4" fill="none" stroke="#9C2A2A" stroke-width="2" transform="rotate(-3 60 60)"/>
    <text x="60" y="55" text-anchor="middle" font-family="serif" font-size="30" font-weight="700" fill="#9C2A2A" transform="rotate(-3 60 60)">西城</text>
    <text x="60" y="90" text-anchor="middle" font-family="serif" font-size="30" font-weight="700" fill="#9C2A2A" transform="rotate(-3 60 60)">閒人</text>
    <text x="60" y="130" text-anchor="middle" font-family="sans-serif" font-size="12" fill="#666">7. 双线框</text>
  </g>
  
  <!-- 8. 竖排 -->
  <g transform="translate(450, 280)">
    <rect x="20" y="10" width="80" height="100" rx="6" fill="none" stroke="#9C2A2A" stroke-width="5" transform="rotate(-3 60 60)"/>
    <text x="45" y="45" text-anchor="middle" font-family="serif" font-size="22" font-weight="700" fill="#9C2A2A" transform="rotate(-3 60 60)">西</text>
    <text x="75" y="45" text-anchor="middle" font-family="serif" font-size="22" font-weight="700" fill="#9C2A2A" transform="rotate(-3 60 60)">城</text>
    <text x="45" y="80" text-anchor="middle" font-family="serif" font-size="22" font-weight="700" fill="#9C2A2A" transform="rotate(-3 60 60)">閒</text>
    <text x="75" y="80" text-anchor="middle" font-family="serif" font-size="22" font-weight="700" fill="#9C2A2A" transform="rotate(-3 60 60)">人</text>
    <text x="60" y="130" text-anchor="middle" font-family="sans-serif" font-size="12" fill="#666">8. 竖排</text>
  </g>
  
  <!-- 9. 小字紧凑 -->
  <g transform="translate(650, 280)">
    <rect x="15" y="15" width="90" height="90" rx="20" fill="none" stroke="#9C2A2A" stroke-width="5" transform="rotate(-3 60 60)"/>
    <text x="60" y="50" text-anchor="middle" font-family="serif" font-size="24" font-weight="700" fill="#9C2A2A" transform="rotate(-3 60 60)">西城</text>
    <text x="60" y="85" text-anchor="middle" font-family="serif" font-size="24" font-weight="700" fill="#9C2A2A" transform="rotate(-3 60 60)">閒人</text>
    <text x="60" y="130" text-anchor="middle" font-family="sans-serif" font-size="12" fill="#666">9. 小字紧凑</text>
  </g>
  
  <!-- 10. 扁方框 -->
  <g transform="translate(850, 280)">
    <rect x="5" y="20" width="110" height="80" rx="6" fill="none" stroke="#9C2A2A" stroke-width="5" transform="rotate(-3 60 60)"/>
    <text x="60" y="55" text-anchor="middle" font-family="serif" font-size="28" font-weight="700" fill="#9C2A2A" transform="rotate(-3 60 60)">西城</text>
    <text x="60" y="85" text-anchor="middle" font-family="serif" font-size="28" font-weight="700" fill="#9C2A2A" transform="rotate(-3 60 60)">閒人</text>
    <text x="60" y="130" text-anchor="middle" font-family="sans-serif" font-size="12" fill="#666">10. 扁方框</text>
  </g>
  
  <!-- Row 3 -->
  <!-- 11. 大方框小字 -->
  <g transform="translate(50, 480)">
    <rect x="5" y="5" width="110" height="110" rx="4" fill="none" stroke="#9C2A2A" stroke-width="4" transform="rotate(-3 60 60)"/>
    <text x="60" y="55" text-anchor="middle" font-family="serif" font-size="26" font-weight="700" fill="#9C2A2A" transform="rotate(-3 60 60)">西城</text>
    <text x="60" y="90" text-anchor="middle" font-family="serif" font-size="26" font-weight="700" fill="#9C2A2A" transform="rotate(-3 60 60)">閒人</text>
    <text x="60" y="130" text-anchor="middle" font-family="sans-serif" font-size="12" fill="#666">11. 大方框小字</text>
  </g>
  
  <!-- 12. 极细边框 -->
  <g transform="translate(250, 480)">
    <rect x="20" y="20" width="80" height="80" rx="10" fill="none" stroke="#9C2A2A" stroke-width="1.5" transform="rotate(-3 60 60)"/>
    <text x="60" y="55" text-anchor="middle" font-family="serif" font-size="28" font-weight="700" fill="#9C2A2A" transform="rotate(-3 60 60)">西城</text>
    <text x="60" y="85" text-anchor="middle" font-family="serif" font-size="28" font-weight="700" fill="#9C2A2A" transform="rotate(-3 60 60)">閒人</text>
    <text x="60" y="130" text-anchor="middle" font-family="sans-serif" font-size="12" fill="#666">12. 极细边框</text>
  </g>
  
  <!-- 13. 菱形 -->
  <g transform="translate(450, 480)">
    <polygon points="60,10 110,60 60,110 10,60" fill="none" stroke="#9C2A2A" stroke-width="5" transform="rotate(-3 60 60)"/>
    <text x="60" y="55" text-anchor="middle" font-family="serif" font-size="24" font-weight="700" fill="#9C2A2A" transform="rotate(-3 60 60)">西城</text>
    <text x="60" y="85" text-anchor="middle" font-family="serif" font-size="24" font-weight="700" fill="#9C2A2A" transform="rotate(-3 60 60)">閒人</text>
    <text x="60" y="130" text-anchor="middle" font-family="sans-serif" font-size="12" fill="#666">13. 菱形</text>
  </g>
  
  <!-- 14. 圆框大字 -->
  <g transform="translate(650, 480)">
    <circle cx="60" cy="60" r="48" fill="none" stroke="#9C2A2A" stroke-width="4" transform="rotate(-3 60 60)"/>
    <text x="60" y="55" text-anchor="middle" font-family="serif" font-size="32" font-weight="700" fill="#9C2A2A" transform="rotate(-3 60 60)">西城</text>
    <text x="60" y="90" text-anchor="middle" font-family="serif" font-size="32" font-weight="700" fill="#9C2A2A" transform="rotate(-3 60 60)">閒人</text>
    <text x="60" y="130" text-anchor="middle" font-family="sans-serif" font-size="12" fill="#666">14. 圆框大字</text>
  </g>
  
  <!-- 15. 粗框小圆角 -->
  <g transform="translate(850, 480)">
    <rect x="15" y="15" width="90" height="90" rx="8" fill="none" stroke="#9C2A2A" stroke-width="8" transform="rotate(-3 60 60)"/>
    <text x="60" y="55" text-anchor="middle" font-family="serif" font-size="28" font-weight="700" fill="#9C2A2A" transform="rotate(-3 60 60)">西城</text>
    <text x="60" y="88" text-anchor="middle" font-family="serif" font-size="28" font-weight="700" fill="#9C2A2A" transform="rotate(-3 60 60)">閒人</text>
    <text x="60" y="130" text-anchor="middle" font-family="sans-serif" font-size="12" fill="#666">15. 粗框小圆角</text>
  </g>
  
  <!-- Row 4 -->
  <!-- 16. 超小框 -->
  <g transform="translate(50, 680)">
    <rect x="25" y="25" width="70" height="70" rx="4" fill="none" stroke="#9C2A2A" stroke-width="4" transform="rotate(-3 60 60)"/>
    <text x="60" y="55" text-anchor="middle" font-family="serif" font-size="22" font-weight="700" fill="#9C2A2A" transform="rotate(-3 60 60)">西城</text>
    <text x="60" y="82" text-anchor="middle" font-family="serif" font-size="22" font-weight="700" fill="#9C2A2A" transform="rotate(-3 60 60)">閒人</text>
    <text x="60" y="130" text-anchor="middle" font-family="sans-serif" font-size="12" fill="#666">16. 超小框</text>
  </g>
  
  <!-- 17. 中等圆角 -->
  <g transform="translate(250, 680)">
    <rect x="15" y="15" width="90" height="90" rx="15" fill="none" stroke="#9C2A2A" stroke-width="5" transform="rotate(-3 60 60)"/>
    <text x="60" y="55" text-anchor="middle" font-family="serif" font-size="30" font-weight="700" fill="#9C2A2A" transform="rotate(-3 60 60)">西城</text>
    <text x="60" y="88" text-anchor="middle" font-family="serif" font-size="30" font-weight="700" fill="#9C2A2A" transform="rotate(-3 60 60)">閒人</text>
    <text x="60" y="130" text-anchor="middle" font-family="sans-serif" font-size="12" fill="#666">17. 中等圆角</text>
  </g>
  
  <!-- 18. 宽扁椭圆 -->
  <g transform="translate(450, 680)">
    <ellipse cx="60" cy="60" rx="58" ry="40" fill="none" stroke="#9C2A2A" stroke-width="5" transform="rotate(-3 60 60)"/>
    <text x="60" y="52" text-anchor="middle" font-family="serif" font-size="24" font-weight="700" fill="#9C2A2A" transform="rotate(-3 60 60)">西城</text>
    <text x="60" y="82" text-anchor="middle" font-family="serif" font-size="24" font-weight="700" fill="#9C2A2A" transform="rotate(-3 60 60)">閒人</text>
    <text x="60" y="130" text-anchor="middle" font-family="sans-serif" font-size="12" fill="#666">18. 宽扁椭圆</text>
  </g>
  
  <!-- 19. 竖长椭圆 -->
  <g transform="translate(650, 680)">
    <ellipse cx="60" cy="60" rx="38" ry="55" fill="none" stroke="#9C2A2A" stroke-width="5" transform="rotate(-3 60 60)"/>
    <text x="60" y="50" text-anchor="middle" font-family="serif" font-size="20" font-weight="700" fill="#9C2A2A" transform="rotate(-3 60 60)">西城</text>
    <text x="60" y="85" text-anchor="middle" font-family="serif" font-size="20" font-weight="700" fill="#9C2A2A" transform="rotate(-3 60 60)">閒人</text>
    <text x="60" y="130" text-anchor="middle" font-family="sans-serif" font-size="12" fill="#666">19. 竖长椭圆</text>
  </g>
  
  <!-- 20. 点状边框 -->
  <g transform="translate(850, 680)">
    <rect x="15" y="15" width="90" height="90" rx="12" fill="none" stroke="#9C2A2A" stroke-width="5" stroke-dasharray="8,4" transform="rotate(-3 60 60)"/>
    <text x="60" y="55" text-anchor="middle" font-family="serif" font-size="28" font-weight="700" fill="#9C2A2A" transform="rotate(-3 60 60)">西城</text>
    <text x="60" y="88" text-anchor="middle" font-family="serif" font-size="28" font-weight="700" fill="#9C2A2A" transform="rotate(-3 60 60)">閒人</text>
    <text x="60" y="130" text-anchor="middle" font-family="sans-serif" font-size="12" fill="#666">20. 点状边框</text>
  </g>
  
  <!-- Instructions -->
  <text x="600" y="900" text-anchor="middle" font-family="sans-serif" font-size="16" fill="#141414">请告诉我您喜欢哪种样式（输入编号1-20）</text>
</svg>